<svg width="385" height="58" viewBox="0 0 385 58" fill="none" xmlns="http://www.w3.org/2000/svg">
<path d="M43.8 52.4H17.7C12.8969 52.4 9 48.5031 9 43.7V14.7C9 9.89688 12.8969 6 17.7 6H45.25C47.6516 6 49.6 7.94844 49.6 10.35V36.45C49.6 38.3441 48.3856 39.9572 46.7 40.5553V46.6C48.3041 46.6 49.6 47.8959 49.6 49.5C49.6 51.1041 48.3041 52.4 46.7 52.4H43.8ZM17.7 40.8C16.0959 40.8 14.8 42.0959 14.8 43.7C14.8 45.3041 16.0959 46.6 17.7 46.6H40.9V40.8H17.7ZM20.6 19.775C20.6 20.9803 21.5697 21.95 22.775 21.95H38.725C39.9303 21.95 40.9 20.9803 40.9 19.775C40.9 18.5697 39.9303 17.6 38.725 17.6H22.775C21.5697 17.6 20.6 18.5697 20.6 19.775ZM22.775 26.3C21.5697 26.3 20.6 27.2697 20.6 28.475C20.6 29.6803 21.5697 30.65 22.775 30.65H38.725C39.9303 30.65 40.9 29.6803 40.9 28.475C40.9 27.2697 39.9303 26.3 38.725 26.3H22.775Z" fill="#87B968"/>
<path d="M90.552 42.86C90.552 43.4573 90.3493 43.8947 89.944 44.172C89.5387 44.4493 89.0053 44.5987 88.344 44.62C87.5973 44.62 86.744 44.3213 85.784 43.724C84.8453 43.148 83.8533 42.3693 82.808 41.388C81.7627 40.4067 80.7387 39.3187 79.736 38.124C78.7333 36.908 77.8053 35.692 76.952 34.476C76.3973 36.7587 75.928 38.572 75.544 39.916C75.16 41.2387 74.776 42.188 74.392 42.764C74.0293 43.34 73.592 43.628 73.08 43.628C72.3333 43.628 71.832 43.308 71.576 42.668C71.32 42.0067 71.192 41.2173 71.192 40.3C71.192 39.66 71.2347 39.0093 71.32 38.348C71.4267 37.6653 71.5867 36.8653 71.8 35.948C72.0133 35.0093 72.3013 33.8467 72.664 32.46C72.1947 32.012 71.96 31.5107 71.96 30.956C71.96 30.5507 72.0667 30.156 72.28 29.772C72.5147 29.3667 72.952 29.036 73.592 28.78C74.1893 26.8173 74.7013 25.2173 75.128 23.98C75.5547 22.7213 75.9387 21.7507 76.28 21.068C76.6213 20.3853 76.9307 19.916 77.208 19.66C77.5067 19.404 77.816 19.276 78.136 19.276C78.7333 19.276 79.192 19.4467 79.512 19.788C79.832 20.1293 79.992 20.7267 79.992 21.58C79.992 21.9 79.896 22.5507 79.704 23.532C79.5333 24.492 79.2027 25.9107 78.712 27.788C80.5893 26.3373 82.3173 24.908 83.896 23.5C85.4747 22.092 86.8507 20.812 88.024 19.66C89.2187 18.508 90.1893 17.5907 90.936 16.908C91.6827 16.2253 92.1627 15.884 92.376 15.884C92.9947 15.884 93.4853 16.0867 93.848 16.492C94.232 16.876 94.424 17.3133 94.424 17.804C94.424 18.2947 94.2107 18.8067 93.784 19.34C93.3147 19.8947 92.6853 20.5987 91.896 21.452C91.1067 22.3053 90.2213 23.2333 89.24 24.236C88.2587 25.2173 87.224 26.1987 86.136 27.18C85.048 28.14 83.9493 29.0147 82.84 29.804C81.752 30.5933 80.696 31.212 79.672 31.66C79.8853 31.8733 80.1093 32.1187 80.344 32.396C80.6 32.652 80.8667 32.94 81.144 33.26C81.8693 34.0493 82.7333 34.924 83.736 35.884C84.7387 36.8227 85.7627 37.7507 86.808 38.668C87.8747 39.564 88.8347 40.3533 89.688 41.036C89.9867 41.3133 90.2 41.5907 90.328 41.868C90.4773 42.124 90.552 42.4547 90.552 42.86ZM103.484 44.908C102.31 44.908 101.265 44.588 100.348 43.948C99.4304 43.3293 98.7051 42.4547 98.1718 41.324C97.6598 40.1933 97.4038 38.8707 97.4038 37.356C97.4038 35.7347 97.5958 34.156 97.9798 32.62C98.3638 31.0627 98.8544 29.6653 99.4518 28.428C100.049 27.1693 100.646 26.1773 101.244 25.452C101.862 24.7053 102.396 24.332 102.844 24.332C103.313 24.332 103.697 24.4707 103.996 24.748C104.316 25.0253 104.476 25.4413 104.476 25.996C104.476 26.0813 104.38 26.3907 104.188 26.924C104.017 27.436 103.793 28.0973 103.516 28.908C103.238 29.6973 102.961 30.5827 102.684 31.564C102.406 32.524 102.172 33.5053 101.98 34.508C101.809 35.5107 101.724 36.4707 101.724 37.388C101.724 38.4973 101.894 39.3827 102.236 40.044C102.577 40.7053 103.313 41.036 104.444 41.036C105.596 41.036 106.716 40.7053 107.804 40.044C108.913 39.3827 109.98 38.4973 111.004 37.388C112.028 36.2573 113.009 34.9987 113.948 33.612C112.838 33.6973 111.793 33.74 110.812 33.74C110.15 33.74 109.67 33.676 109.372 33.548C109.073 33.3987 108.881 33.2067 108.796 32.972C108.732 32.7373 108.7 32.46 108.7 32.14C108.7 31.692 108.902 31.2867 109.308 30.924C109.713 30.5613 110.161 30.3693 110.652 30.348C111.569 30.284 112.497 30.2093 113.436 30.124C114.396 30.0387 115.345 29.9427 116.284 29.836C116.988 28.5773 117.638 27.3293 118.236 26.092C118.854 24.8333 119.42 23.6493 119.932 22.54C120.422 21.1533 120.945 19.8733 121.5 18.7C122.076 17.5053 122.63 16.5453 123.164 15.82C123.697 15.0947 124.198 14.732 124.668 14.732C125.222 14.732 125.638 14.8813 125.916 15.18C126.214 15.4787 126.364 15.8733 126.364 16.364C126.364 16.5133 126.257 16.9507 126.044 17.676C125.83 18.4013 125.532 19.34 125.148 20.492C124.785 21.644 124.369 22.9453 123.9 24.396C123.452 25.8253 122.972 27.34 122.46 28.94C124.486 28.5987 126.332 28.268 127.996 27.948C129.681 27.628 131.057 27.3613 132.124 27.148C133.19 26.9347 133.83 26.828 134.044 26.828C134.47 26.828 134.822 27.0307 135.1 27.436C135.377 27.82 135.516 28.1933 135.516 28.556C135.516 28.7693 135.121 29.0467 134.332 29.388C133.564 29.7293 132.508 30.1027 131.164 30.508C129.841 30.892 128.326 31.2867 126.62 31.692C124.934 32.076 123.164 32.4173 121.308 32.716C120.796 34.4013 120.305 36.0547 119.836 37.676C119.388 39.276 119.004 40.7587 118.684 42.124C118.534 42.7213 118.289 43.18 117.948 43.5C117.628 43.7987 117.19 43.948 116.636 43.948C116.06 43.948 115.633 43.8093 115.356 43.532C115.078 43.276 114.94 42.8067 114.94 42.124C114.94 42.06 115.004 41.708 115.132 41.068C115.281 40.4067 115.462 39.596 115.676 38.636C115.91 37.6547 116.134 36.652 116.348 35.628C115.089 37.3773 113.756 38.956 112.348 40.364C110.94 41.772 109.489 42.8813 107.996 43.692C106.502 44.5027 104.998 44.908 103.484 44.908ZM103.58 22.124C102.876 22.124 102.3 21.9107 101.852 21.484C101.404 21.036 101.18 20.5133 101.18 19.916C101.18 19.1907 101.446 18.572 101.98 18.06C102.534 17.548 103.185 17.292 103.932 17.292C104.764 17.292 105.393 17.516 105.82 17.964C106.268 18.412 106.492 19.0093 106.492 19.756C106.492 20.2893 106.214 20.8227 105.66 21.356C105.105 21.868 104.412 22.124 103.58 22.124ZM137.674 44.396C136.479 44.396 135.444 44.1187 134.57 43.564C133.695 43.0307 133.023 42.3373 132.554 41.484C132.084 40.6093 131.85 39.7133 131.85 38.796C131.85 37.26 132.084 35.8413 132.554 34.54C133.023 33.2173 133.642 32.0227 134.41 30.956C135.178 29.868 136.01 28.908 136.906 28.076C137.823 27.244 138.708 26.5507 139.562 25.996C140.436 25.42 141.215 24.9933 141.898 24.716C142.58 24.4173 143.082 24.268 143.402 24.268C143.978 24.268 144.383 24.396 144.618 24.652C144.874 24.8867 145.002 25.2813 145.002 25.836C145.002 26.156 144.767 26.54 144.298 26.988C143.85 27.436 143.252 27.948 142.506 28.524C141.78 29.1 141.012 29.7507 140.202 30.476C139.391 31.2013 138.612 32.012 137.866 32.908C137.14 33.804 136.543 34.7853 136.074 35.852C135.626 36.9187 135.402 38.0813 135.402 39.34C135.402 39.8093 135.487 40.172 135.658 40.428C135.85 40.684 136.159 40.812 136.586 40.812C137.802 40.812 139.103 40.5987 140.49 40.172C141.898 39.724 143.295 39.1693 144.682 38.508C146.09 37.8253 147.412 37.1213 148.65 36.396C149.908 35.6707 150.986 35.02 151.882 34.444C152.244 34.188 152.554 33.9853 152.81 33.836C153.066 33.6867 153.247 33.612 153.354 33.612C153.994 33.612 154.314 33.9427 154.314 34.604C154.314 34.9453 154.058 35.404 153.546 35.98C152.948 36.7267 152.138 37.4947 151.114 38.284C150.111 39.0733 148.991 39.8307 147.753 40.556C146.538 41.2813 145.29 41.932 144.01 42.508C142.751 43.084 141.567 43.5427 140.458 43.884C139.348 44.2253 138.42 44.396 137.674 44.396ZM153.785 45.996C152.804 45.996 152.1 45.7187 151.673 45.164C151.246 44.6093 151.033 43.7987 151.033 42.732C151.033 41.7507 151.214 40.4707 151.577 38.892C151.961 37.292 152.462 35.5107 153.081 33.548C153.721 31.564 154.436 29.5267 155.225 27.436C156.014 25.324 156.836 23.2547 157.689 21.228C158.542 19.18 159.374 17.3027 160.185 15.596C160.569 14.8493 160.974 14.3373 161.401 14.06C161.828 13.7827 162.297 13.644 162.809 13.644C163.3 13.644 163.716 13.7827 164.057 14.06C164.398 14.316 164.569 14.732 164.569 15.308C164.569 15.436 164.398 15.9267 164.057 16.78C163.716 17.612 163.268 18.7 162.713 20.044C162.158 21.3667 161.55 22.86 160.889 24.524C160.228 26.1667 159.566 27.884 158.905 29.676C158.244 31.4467 157.646 33.196 157.113 34.924C156.58 36.652 156.153 38.252 155.833 39.724C156.58 38.7213 157.38 37.612 158.233 36.396C159.108 35.1587 159.993 33.932 160.889 32.716C161.806 31.4787 162.702 30.348 163.577 29.324C164.473 28.3 165.305 27.4787 166.073 26.86C166.841 26.2413 167.513 25.932 168.089 25.932C169.156 25.932 170.009 26.2307 170.649 26.828C171.31 27.404 171.641 28.4067 171.641 29.836C171.641 30.4973 171.513 31.2973 171.257 32.236C171.001 33.1533 170.692 34.124 170.329 35.148C169.988 36.1507 169.689 37.1213 169.433 38.06C169.177 38.9987 169.049 39.82 169.049 40.524C169.049 40.908 169.23 41.1 169.593 41.1C170.638 41.1 171.694 40.876 172.761 40.428C173.849 39.98 174.884 39.4253 175.865 38.764C176.868 38.0813 177.774 37.4093 178.585 36.748C179.417 36.0653 180.089 35.5 180.601 35.052C180.964 34.7107 181.294 34.4867 181.593 34.38C181.892 34.252 182.169 34.188 182.425 34.188C183.3 34.188 183.737 34.6253 183.737 35.5C183.737 35.6707 183.705 35.884 183.641 36.14C183.577 36.3747 183.374 36.6733 183.033 37.036C182.692 37.3987 182.18 37.9107 181.497 38.572C180.814 39.2333 180.014 39.9373 179.097 40.684C178.201 41.4307 177.22 42.1453 176.153 42.828C175.108 43.4893 174.03 44.0333 172.921 44.46C171.812 44.8867 170.734 45.1 169.689 45.1C168.11 45.1 166.894 44.652 166.041 43.756C165.188 42.8813 164.761 41.6867 164.761 40.172C164.761 39.1267 164.974 37.8147 165.401 36.236C165.828 34.636 166.308 33.004 166.841 31.34C166.094 32.0653 165.316 32.9293 164.505 33.932C163.694 34.9133 162.873 35.9587 162.041 37.068C161.209 38.156 160.388 39.2333 159.577 40.3C158.788 41.3453 158.03 42.3053 157.305 43.18C156.58 44.0333 155.918 44.716 155.321 45.228C154.724 45.74 154.212 45.996 153.785 45.996ZM185.427 44.588C184.104 44.588 183.038 44.1293 182.227 43.212C181.416 42.2733 181.011 40.7693 181.011 38.7C181.011 37.3773 181.16 36.0547 181.459 34.732C181.779 33.388 182.216 32.1187 182.771 30.924C183.347 29.708 184.008 28.6307 184.755 27.692C185.523 26.7533 186.366 26.0173 187.283 25.484C188.2 24.9293 189.15 24.652 190.131 24.652C191.795 24.652 193.096 25.1 194.035 25.996C194.974 26.892 195.443 28.0333 195.443 29.42C195.443 30.4867 195.144 31.4573 194.547 32.332C193.971 33.1853 193.182 33.9533 192.179 34.636C191.176 35.3187 190.056 35.9373 188.819 36.492C187.582 37.0467 186.312 37.548 185.011 37.996C184.904 38.764 184.851 39.4467 184.851 40.044C184.851 40.4067 185.054 40.588 185.459 40.588C186.419 40.588 187.443 40.4387 188.531 40.14C189.64 39.82 190.76 39.4147 191.891 38.924C193.022 38.412 194.11 37.8893 195.155 37.356C196.2 36.8013 197.15 36.2787 198.003 35.788C198.878 35.276 199.592 34.8707 200.147 34.572C200.723 34.252 201.096 34.092 201.267 34.092C201.736 34.092 202.078 34.2307 202.291 34.508C202.504 34.7853 202.611 35.084 202.611 35.404C202.611 35.5533 202.323 35.884 201.747 36.396C201.192 36.908 200.424 37.516 199.443 38.22C198.483 38.9027 197.395 39.6173 196.179 40.364C194.984 41.0893 193.736 41.7827 192.435 42.444C191.155 43.084 189.907 43.596 188.691 43.98C187.496 44.3853 186.408 44.588 185.427 44.588ZM185.555 35.148C186.43 34.636 187.294 34.1027 188.147 33.548C189.022 32.972 189.747 32.332 190.323 31.628C190.899 30.9027 191.187 30.06 191.187 29.1C191.187 28.8227 191.112 28.6413 190.963 28.556C190.814 28.4493 190.6 28.396 190.323 28.396C189.576 28.396 188.894 28.7267 188.275 29.388C187.678 30.0493 187.144 30.9027 186.675 31.948C186.227 32.972 185.854 34.0387 185.555 35.148ZM203.467 43.5C202.955 43.5 202.443 43.3293 201.931 42.988C201.44 42.6253 201.035 42.1133 200.715 41.452C200.395 40.7693 200.235 39.948 200.235 38.988C200.235 37.708 200.405 36.3427 200.747 34.892C201.109 33.4413 201.547 31.9907 202.059 30.54C202.571 29.0893 203.072 27.724 203.563 26.444C203.797 25.8253 204.085 25.4093 204.427 25.196C204.768 24.9613 205.216 24.844 205.771 24.844C207.029 24.844 207.659 25.4733 207.659 26.732C207.659 26.9453 207.563 27.3613 207.371 27.98C207.179 28.5773 206.923 29.3133 206.603 30.188C206.304 31.0627 205.984 32.012 205.643 33.036C205.323 34.0387 205.024 35.0627 204.747 36.108C204.491 37.132 204.288 38.1027 204.139 39.02C204.629 38.2733 205.173 37.3453 205.771 36.236C206.389 35.1053 207.04 33.9213 207.723 32.684C208.427 31.4467 209.131 30.2947 209.835 29.228C210.539 28.14 211.232 27.2547 211.915 26.572C212.597 25.8893 213.248 25.548 213.867 25.548C214.4 25.548 214.901 25.6547 215.371 25.868C215.861 26.06 216.288 26.444 216.651 27.02C217.013 27.5747 217.291 28.3747 217.483 29.42C217.696 30.4653 217.803 31.8413 217.803 33.548C217.803 34.4013 217.877 35.2333 218.027 36.044C218.197 36.8333 218.475 37.4947 218.859 38.028C219.243 38.54 219.787 38.796 220.491 38.796C221.707 38.796 222.795 38.572 223.755 38.124C224.715 37.676 225.557 37.1533 226.283 36.556C227.008 35.9587 227.616 35.436 228.107 34.988C228.405 34.6893 228.661 34.4547 228.875 34.284C229.109 34.1133 229.301 34.028 229.451 34.028C229.899 34.028 230.219 34.1453 230.411 34.38C230.624 34.6147 230.731 34.9347 230.731 35.34C230.731 35.5533 230.549 35.948 230.187 36.524C229.824 37.1 229.312 37.7613 228.651 38.508C228.011 39.2333 227.275 39.9373 226.443 40.62C225.611 41.3027 224.715 41.868 223.755 42.316C222.795 42.764 221.813 42.988 220.811 42.988C219.125 42.988 217.728 42.6893 216.619 42.092C215.531 41.4733 214.72 40.4493 214.187 39.02C213.653 37.5693 213.387 35.596 213.387 33.1C213.387 33.036 213.387 32.9293 213.387 32.78C213.387 32.1187 213.376 31.532 213.355 31.02C213.355 30.508 213.323 30.092 213.259 29.772C212.896 30.4333 212.459 31.2227 211.947 32.14C211.456 33.0573 210.923 34.0387 210.347 35.084C209.771 36.108 209.173 37.1213 208.555 38.124C207.936 39.1053 207.317 40.0013 206.699 40.812C206.101 41.6227 205.525 42.2733 204.971 42.764C204.416 43.2547 203.915 43.5 203.467 43.5ZM250.331 45.164C249.541 45.164 248.72 44.972 247.867 44.588C247.013 44.2253 246.288 43.6067 245.691 42.732C245.115 41.8573 244.827 40.6947 244.827 39.244C244.827 37.708 244.955 36.1187 245.211 34.476C245.488 32.812 245.84 31.18 246.267 29.58C246.715 27.9587 247.195 26.4333 247.707 25.004C248.24 23.5747 248.763 22.3053 249.275 21.196C249.808 20.0867 250.299 19.2227 250.747 18.604C251.216 17.964 251.589 17.644 251.867 17.644C252.443 17.644 252.955 17.8573 253.403 18.284C253.872 18.7107 254.107 19.3613 254.107 20.236C254.107 20.4493 253.979 20.972 253.723 21.804C253.488 22.6147 253.179 23.628 252.795 24.844C252.432 26.06 252.027 27.3827 251.579 28.812C251.152 30.22 250.747 31.6493 250.363 33.1C250 34.5507 249.691 35.916 249.435 37.196C249.2 38.476 249.083 39.5747 249.083 40.492C249.083 40.748 249.232 40.876 249.531 40.876C249.957 40.876 250.587 40.7693 251.419 40.556C252.272 40.3427 253.2 40.076 254.203 39.756C255.227 39.4147 256.208 39.084 257.147 38.764C258.085 38.444 258.885 38.1773 259.547 37.964C260.208 37.7507 260.581 37.644 260.667 37.644C261.2 37.644 261.627 37.7933 261.947 38.092C262.267 38.3907 262.427 38.8173 262.427 39.372C262.427 39.756 262.171 40.204 261.659 40.716C261.147 41.2067 260.464 41.7187 259.611 42.252C258.757 42.764 257.797 43.2333 256.731 43.66C255.685 44.108 254.608 44.4707 253.499 44.748C252.389 45.0253 251.333 45.164 250.331 45.164ZM267.621 43.98C267.023 43.98 266.49 43.7773 266.021 43.372C265.573 42.9667 265.349 42.3053 265.349 41.388C265.349 40.8973 265.413 40.204 265.541 39.308C265.69 38.412 265.882 37.4413 266.117 36.396C266.351 35.3293 266.607 34.2733 266.885 33.228C267.183 32.1827 267.471 31.2547 267.749 30.444C268.026 29.612 268.271 28.9933 268.485 28.588C268.762 28.0973 269.018 27.7987 269.253 27.692C269.509 27.564 269.754 27.5 269.989 27.5C270.415 27.5 270.81 27.628 271.173 27.884C271.557 28.14 271.749 28.7053 271.749 29.58C271.749 29.9213 271.685 30.476 271.557 31.244C271.429 31.9907 271.269 32.8653 271.077 33.868C270.885 34.8707 270.671 35.9053 270.437 36.972C270.223 38.0387 270.01 39.052 269.797 40.012C269.605 40.9507 269.445 41.74 269.317 42.38C269.21 42.9133 268.986 43.308 268.645 43.564C268.325 43.8413 267.983 43.98 267.621 43.98ZM271.301 24.332C270.597 24.332 269.946 24.1293 269.349 23.724C268.751 23.2973 268.453 22.6467 268.453 21.772C268.453 21.0467 268.634 20.46 268.997 20.012C269.359 19.564 269.786 19.244 270.277 19.052C270.789 18.8387 271.237 18.732 271.621 18.732C272.005 18.732 272.431 18.8173 272.901 18.988C273.37 19.1373 273.775 19.4253 274.117 19.852C274.479 20.2573 274.661 20.844 274.661 21.612C274.661 22.124 274.479 22.5933 274.117 23.02C273.754 23.4253 273.306 23.7453 272.773 23.98C272.261 24.2147 271.77 24.332 271.301 24.332ZM279.847 44.492C278.567 44.492 277.682 44.236 277.191 43.724C276.722 43.2333 276.487 42.5507 276.487 41.676C276.487 37.964 277.181 34.092 278.567 30.06C279.975 26.0067 281.949 21.9427 284.487 17.868C284.914 17.164 285.266 16.748 285.543 16.62C285.821 16.492 286.13 16.428 286.471 16.428C286.962 16.428 287.389 16.5987 287.751 16.94C288.135 17.2813 288.327 17.7293 288.327 18.284C288.327 18.4547 288.146 18.924 287.783 19.692C287.421 20.46 286.941 21.4413 286.343 22.636C285.767 23.8307 285.138 25.1853 284.455 26.7C283.773 28.1933 283.101 29.772 282.439 31.436C281.799 33.1 281.245 34.7747 280.775 36.46C281.501 35.5427 282.322 34.604 283.239 33.644C284.178 32.6627 285.149 31.7667 286.151 30.956C287.154 30.124 288.125 29.4627 289.063 28.972C290.002 28.46 290.845 28.204 291.591 28.204C292.295 28.204 292.946 28.3747 293.543 28.716C294.162 29.0573 294.663 29.5907 295.047 30.316C295.431 31.0413 295.623 31.98 295.623 33.132C295.623 34.3907 295.261 35.6813 294.535 37.004C293.831 38.3267 292.797 39.5533 291.431 40.684C290.087 41.8147 288.434 42.732 286.471 43.436C284.53 44.14 282.322 44.492 279.847 44.492ZM281.191 40.844C282.834 40.716 284.317 40.364 285.639 39.788C286.983 39.212 288.135 38.4973 289.095 37.644C290.055 36.7907 290.791 35.8947 291.303 34.956C291.815 33.996 292.071 33.0893 292.071 32.236C292.071 32.044 292.018 31.948 291.911 31.948C291.463 31.948 290.898 32.1507 290.215 32.556C289.533 32.94 288.786 33.4627 287.975 34.124C287.165 34.7853 286.343 35.5107 285.511 36.3C284.679 37.0893 283.89 37.8787 283.143 38.668C282.397 39.4573 281.746 40.1827 281.191 40.844ZM299.234 44.908C298.7 44.908 298.242 44.716 297.858 44.332C297.495 43.948 297.314 43.3933 297.314 42.668C297.314 42.348 297.356 41.8253 297.442 41.1C297.548 40.3533 297.676 39.5 297.826 38.54C297.996 37.58 298.156 36.5773 298.306 35.532C298.476 34.4867 298.615 33.4947 298.722 32.556C298.85 31.6173 298.935 30.8173 298.978 30.156C299.02 29.3453 299.234 28.7693 299.618 28.428C300.002 28.0653 300.46 27.884 300.994 27.884C301.42 27.884 301.804 27.9907 302.146 28.204C302.508 28.396 302.732 28.812 302.818 29.452C302.924 30.0707 302.935 30.9667 302.85 32.14C303.788 30.4333 304.738 28.908 305.698 27.564C306.679 26.22 307.703 25.1533 308.77 24.364C310.54 23.02 312.14 22.348 313.569 22.348C314.38 22.348 314.914 22.5293 315.17 22.892C315.426 23.2547 315.554 23.628 315.554 24.012C315.554 24.268 315.49 24.5027 315.362 24.716C315.255 24.9293 315.02 25.1533 314.658 25.388C314.295 25.6227 313.74 25.932 312.994 26.316C311.991 26.828 310.999 27.5 310.018 28.332C309.058 29.164 308.098 30.2307 307.138 31.532C306.178 32.8333 305.207 34.4333 304.226 36.332C303.244 38.2307 302.231 40.492 301.186 43.116C300.994 43.8413 300.716 44.3213 300.354 44.556C300.012 44.7907 299.639 44.908 299.234 44.908ZM314.496 44.716C313.813 44.716 313.194 44.524 312.64 44.14C312.085 43.7773 311.648 43.2973 311.328 42.7C311.008 42.0813 310.848 41.42 310.848 40.716C310.848 39.3933 311.136 38.1027 311.712 36.844C312.309 35.5853 313.088 34.3907 314.048 33.26C315.008 32.1293 316.053 31.0947 317.184 30.156C318.336 29.196 319.477 28.3747 320.608 27.692C321.76 27.0093 322.805 26.476 323.744 26.092C324.704 25.708 325.45 25.516 325.984 25.516C326.602 25.516 327.104 25.6547 327.488 25.932C327.893 26.188 328.096 26.5933 328.096 27.148C328.096 27.3187 328.053 27.4573 327.968 27.564C328.245 27.628 328.469 27.788 328.64 28.044C328.81 28.3 328.896 28.684 328.896 29.196C328.896 29.4093 328.842 29.964 328.736 30.86C328.629 31.756 328.512 32.844 328.384 34.124C328.277 35.404 328.224 36.7373 328.224 38.124C328.224 38.3373 328.256 38.5293 328.32 38.7C328.384 38.8493 328.522 38.924 328.736 38.924C329.589 38.924 330.453 38.7533 331.328 38.412C332.224 38.0493 333.088 37.612 333.92 37.1C334.773 36.5667 335.541 36.044 336.224 35.532C336.928 34.9987 337.514 34.5613 337.984 34.22C338.474 33.8573 338.794 33.676 338.944 33.676C339.669 33.676 340.032 34.0387 340.032 34.764C340.032 34.956 339.797 35.3613 339.328 35.98C338.88 36.5773 338.261 37.2707 337.472 38.06C336.682 38.828 335.797 39.596 334.816 40.364C333.856 41.1107 332.853 41.7293 331.808 42.22C330.784 42.7107 329.792 42.956 328.832 42.956C327.658 42.956 326.762 42.6787 326.144 42.124C325.546 41.5693 325.12 40.8227 324.864 39.884C324.629 38.924 324.501 37.8467 324.48 36.652C323.392 38.2093 322.261 39.596 321.088 40.812C319.936 42.0067 318.794 42.956 317.664 43.66C316.533 44.364 315.477 44.716 314.496 44.716ZM325.824 28.684C323.733 29.6867 321.856 30.8387 320.192 32.14C318.528 33.42 317.205 34.764 316.224 36.172C315.264 37.58 314.784 38.9347 314.784 40.236C314.784 40.5987 314.954 40.78 315.296 40.78C315.701 40.78 316.234 40.5453 316.896 40.076C317.578 39.6067 318.314 38.988 319.104 38.22C319.893 37.4307 320.682 36.556 321.472 35.596C322.261 34.6147 322.997 33.612 323.68 32.588C324.362 31.564 324.906 30.5827 325.312 29.644C325.461 29.3027 325.632 28.9827 325.824 28.684ZM338.921 44.908C338.388 44.908 337.929 44.716 337.545 44.332C337.182 43.948 337.001 43.3933 337.001 42.668C337.001 42.348 337.044 41.8253 337.129 41.1C337.236 40.3533 337.364 39.5 337.513 38.54C337.684 37.58 337.844 36.5773 337.993 35.532C338.164 34.4867 338.302 33.4947 338.409 32.556C338.537 31.6173 338.622 30.8173 338.665 30.156C338.708 29.3453 338.921 28.7693 339.305 28.428C339.689 28.0653 340.148 27.884 340.681 27.884C341.108 27.884 341.492 27.9907 341.833 28.204C342.196 28.396 342.42 28.812 342.505 29.452C342.612 30.0707 342.622 30.9667 342.537 32.14C343.476 30.4333 344.425 28.908 345.385 27.564C346.366 26.22 347.39 25.1533 348.457 24.364C350.228 23.02 351.828 22.348 353.257 22.348C354.068 22.348 354.601 22.5293 354.857 22.892C355.113 23.2547 355.241 23.628 355.241 24.012C355.241 24.268 355.177 24.5027 355.049 24.716C354.942 24.9293 354.708 25.1533 354.345 25.388C353.982 25.6227 353.428 25.932 352.681 26.316C351.678 26.828 350.686 27.5 349.705 28.332C348.745 29.164 347.785 30.2307 346.825 31.532C345.865 32.8333 344.894 34.4333 343.913 36.332C342.932 38.2307 341.918 40.492 340.873 43.116C340.681 43.8413 340.404 44.3213 340.041 44.556C339.7 44.7907 339.326 44.908 338.921 44.908ZM358.99 52.3C357.795 52.3 356.707 52.2253 355.726 52.076C354.744 51.948 353.784 51.7347 352.846 51.436C351.907 51.1373 350.893 50.7427 349.805 50.252C349.357 50.0387 348.984 49.8147 348.685 49.58C348.387 49.3453 348.237 48.9933 348.237 48.524C348.237 47.8413 348.451 47.3187 348.877 46.956C349.283 46.6147 349.848 46.444 350.573 46.444C350.957 46.444 351.448 46.572 352.046 46.828C352.643 47.1053 353.326 47.4147 354.094 47.756C354.883 48.1187 355.758 48.428 356.718 48.684C357.678 48.9613 358.712 49.1 359.822 49.1C360.952 49.1 362.008 48.6307 362.99 47.692C363.971 46.7533 364.76 45.4307 365.358 43.724C365.976 42.0387 366.286 40.044 366.286 37.74C366.286 37.2067 366.275 36.6307 366.254 36.012C366.232 35.372 366.211 34.7 366.19 33.996C365.422 35.4467 364.59 36.8013 363.694 38.06C362.798 39.3187 361.87 40.3427 360.91 41.132C359.971 41.9 359.022 42.284 358.062 42.284C356.888 42.284 356.035 42.0067 355.502 41.452C354.99 40.876 354.734 39.9693 354.734 38.732C354.734 37.6867 354.808 36.5453 354.958 35.308C355.128 34.0493 355.352 32.78 355.63 31.5C355.907 30.22 356.227 29.004 356.59 27.852C356.974 26.6787 357.379 25.6653 357.806 24.812C358.126 24.1933 358.616 23.884 359.278 23.884C359.704 23.884 360.131 24.0867 360.558 24.492C361.006 24.8973 361.23 25.4413 361.23 26.124C361.23 26.508 361.134 27.0627 360.942 27.788C360.75 28.5133 360.515 29.3347 360.238 30.252C359.982 31.148 359.715 32.0973 359.438 33.1C359.16 34.0813 358.926 35.052 358.734 36.012C358.542 36.9507 358.446 37.804 358.446 38.572C358.446 38.6573 358.51 38.7 358.638 38.7C358.894 38.7 359.235 38.4867 359.661 38.06C360.11 37.612 360.6 37.036 361.134 36.332C361.688 35.6067 362.243 34.8173 362.798 33.964C363.374 33.0893 363.928 32.2253 364.462 31.372C364.995 30.5187 365.475 29.74 365.902 29.036C365.838 28.6947 365.795 28.396 365.774 28.14C365.774 27.8627 365.774 27.628 365.774 27.436C365.774 26.5613 365.923 25.836 366.222 25.26C366.542 24.684 367.16 24.396 368.078 24.396C368.675 24.396 369.134 24.62 369.454 25.068C369.774 25.4947 369.934 26.1027 369.934 26.892C369.934 27.2333 369.88 27.628 369.774 28.076C369.667 28.5027 369.454 29.1853 369.134 30.124L369.486 29.132C369.678 31.052 369.838 32.7587 369.966 34.252C370.115 35.7453 370.19 37.228 370.19 38.7C370.19 41.4733 369.72 43.8733 368.782 45.9C367.864 47.948 366.563 49.5267 364.878 50.636C363.214 51.7453 361.251 52.3 358.99 52.3Z" fill="#87B968"/>
</svg>
